<?xml version="1.0" standalone="no"?>
<!DOCTYPE svg PUBLIC "-//W3C//DTD SVG 20010904//EN"
 "http://www.w3.org/TR/2001/REC-SVG-20010904/DTD/svg10.dtd">
<svg version="1.0" xmlns="http://www.w3.org/2000/svg"
 width="588.000000pt" height="352.000000pt" viewBox="0 0 588.000000 352.000000"
 preserveAspectRatio="xMidYMid meet">

<g transform="translate(0.000000,352.000000) scale(0.100000,-0.100000)"
fill="#000000" stroke="none">
<path d="M0 1755 l0 -1755 2940 0 2940 0 0 1755 0 1755 -2940 0 -2940 0 0
-1755z m3183 805 c42 0 57 -4 55 -12 -3 -7 -15 -15 -28 -18 -13 -3 -28 -13
-34 -23 -13 -21 8 -61 96 -185 l60 -83 33 44 c68 88 115 171 115 199 0 24 -6
32 -36 44 -64 27 -36 37 101 37 135 0 171 -12 97 -33 -51 -13 -112 -79 -211
-225 l-73 -108 4 -150 c3 -142 4 -150 27 -168 13 -10 34 -19 47 -19 14 0 24
-6 24 -14 0 -12 -29 -15 -175 -15 -145 0 -175 3 -175 15 0 8 8 14 19 14 37 0
69 37 73 85 3 49 1 53 -17 28 -11 -15 -13 -15 -20 6 -4 13 -3 26 3 30 19 12
23 50 8 84 -7 19 -18 37 -23 40 -12 7 -141 -22 -180 -42 -34 -16 -36 -20 -47
-123 -6 -53 6 -95 32 -114 35 -25 23 -27 -201 -25 -138 1 -178 4 -175 14 3 6
20 14 39 17 50 7 62 40 67 192 l5 128 -122 0 -121 0 -2 -87 c-5 -193 4 -225
63 -237 70 -14 17 -22 -141 -21 -191 1 -222 9 -127 30 52 11 57 43 57 340 0
302 -5 324 -67 325 -13 0 -23 6 -23 14 0 11 30 14 165 12 102 0 165 -5 165
-11 1 -5 -14 -12 -32 -15 -50 -8 -58 -35 -56 -180 l3 -125 118 -3 117 -3 0
130 c0 146 -8 167 -69 180 -19 3 -36 12 -39 19 -4 12 209 20 433 15 61 -2 136
-3 168 -3z m-453 -897 c18 -43 39 -86 48 -95 14 -17 12 -18 -27 -18 -27 0 -40
4 -36 11 4 5 4 21 1 35 -9 33 -61 35 -69 2 -4 -12 -1 -28 5 -35 8 -10 4 -13
-20 -13 l-31 0 24 36 c14 20 25 41 25 46 0 10 41 108 45 108 2 0 18 -35 35
-77z m545 0 c14 -38 33 -78 41 -90 14 -23 14 -23 -27 -23 -32 0 -39 3 -31 13
6 7 6 21 1 35 -12 33 -63 28 -67 -7 -2 -13 2 -28 10 -32 9 -6 2 -9 -20 -9 -31
0 -32 1 -18 23 8 12 27 55 42 94 14 40 30 71 34 68 4 -3 20 -35 35 -72z m-882
60 c-7 -2 -13 -20 -13 -39 0 -32 2 -34 35 -34 33 0 35 2 35 34 0 19 -6 37 -12
39 -7 3 7 5 32 5 25 0 39 -2 33 -5 -17 -6 -18 -144 -1 -161 9 -9 2 -12 -32
-12 -34 0 -41 3 -32 12 7 7 12 27 12 45 0 31 -2 33 -35 33 -34 0 -35 -1 -35
-39 0 -22 5 -42 13 -44 6 -3 -8 -6 -32 -6 -35 -1 -42 2 -33 11 17 17 16 155 0
161 -7 3 7 5 32 5 25 0 39 -2 33 -5z m631 -9 c19 -18 19 -20 6 -45 -6 -10 -18
-19 -28 -20 -11 0 -12 -2 -4 -6 7 -3 19 -21 28 -41 8 -20 20 -40 27 -44 7 -5
-2 -8 -21 -8 -18 0 -34 6 -36 13 -14 54 -24 72 -39 75 -24 5 -24 -63 1 -77 13
-8 6 -10 -33 -10 -27 0 -44 3 -37 6 8 3 12 30 12 83 0 53 -4 80 -12 83 -7 3
17 6 54 6 48 1 71 -3 82 -15z m516 -6 c0 -20 -1 -20 -18 -5 -26 24 -62 22 -62
-2 0 -12 11 -23 32 -30 66 -23 85 -64 48 -101 -15 -15 -31 -20 -65 -18 -42 3
-45 5 -45 32 l0 29 21 -27 c24 -31 54 -34 69 -7 8 16 6 23 -12 35 -12 9 -27
16 -32 16 -18 0 -46 33 -46 55 0 32 19 45 67 45 37 0 43 -3 43 -22z m-1497
-65 c-89 -2 -237 -2 -330 0 -92 1 -19 3 162 3 182 0 257 -2 168 -3z m2120 0
c-89 -2 -237 -2 -330 0 -92 1 -19 3 162 3 182 0 257 -2 168 -3z m-2243 -150
c7 -16 53 -127 102 -248 49 -121 97 -228 105 -237 9 -10 26 -18 39 -18 43 0
49 29 49 251 0 217 -3 234 -46 241 -11 2 -20 8 -19 13 0 6 49 10 125 10 75 0
126 -4 127 -10 1 -5 -11 -12 -27 -15 -36 -6 -43 -27 -44 -136 l-1 -81 57 -7
c31 -4 83 -4 115 0 l58 7 0 97 c0 104 -5 115 -50 122 -14 1 -25 8 -25 13 0 6
96 11 263 13 149 1 262 -2 262 -7 0 -5 -13 -14 -30 -21 -21 -9 -30 -19 -30
-36 0 -36 133 -327 142 -311 15 28 78 210 77 226 -1 33 -45 106 -72 119 -15 7
-25 17 -22 23 10 15 268 12 263 -3 -3 -7 -15 -15 -29 -18 -42 -10 -37 -61 21
-210 28 -71 55 -130 60 -130 4 0 26 51 48 113 74 209 74 209 27 227 -14 5 -25
14 -25 20 0 12 112 13 381 3 l186 -6 12 -49 c6 -27 11 -59 11 -71 -1 -19 -5
-17 -38 19 -57 63 -84 76 -154 78 -35 0 -69 -3 -75 -7 -9 -6 -13 -39 -13 -108
l0 -99 33 0 c40 0 72 21 92 61 9 16 19 29 23 29 8 0 6 -210 -3 -218 -2 -3 -12
12 -20 32 -16 38 -61 66 -105 66 -19 0 -20 -6 -20 -104 0 -134 5 -140 104
-134 84 6 147 34 173 78 28 48 42 39 30 -20 -5 -28 -7 -54 -3 -57 11 -12 40
12 47 38 9 30 11 386 3 416 -3 12 -19 26 -35 32 -16 5 -29 15 -29 21 0 7 41
10 128 8 78 -2 126 -7 125 -13 -1 -5 -13 -12 -25 -14 -34 -5 -38 -17 -38 -122
l0 -96 51 -7 c27 -4 77 -4 109 0 55 6 58 8 64 36 10 50 7 131 -7 157 -7 15
-26 28 -45 33 -64 17 -19 28 114 28 85 0 134 -4 134 -10 0 -6 -13 -13 -29 -16
-17 -4 -33 -14 -37 -23 -4 -9 -9 -109 -12 -224 -3 -179 -2 -211 12 -232 10
-16 26 -25 41 -25 14 0 25 -4 25 -10 0 -6 -53 -10 -140 -10 -132 0 -178 10
-110 24 40 8 50 36 50 147 l0 90 -112 -3 -113 -3 -3 -92 c-3 -102 6 -129 43
-139 74 -18 -8 -24 -345 -24 -343 0 -426 6 -340 25 17 4 35 15 40 25 6 11 10
110 10 233 0 170 -3 217 -14 226 -37 31 -64 -15 -170 -298 -56 -147 -86 -216
-96 -216 -10 0 -37 57 -82 169 -37 92 -69 170 -71 172 -2 3 -33 -74 -68 -171
-46 -128 -67 -175 -78 -173 -8 2 -56 94 -111 214 -115 253 -143 302 -174 310
-42 10 -70 1 -77 -26 -4 -14 -7 -118 -8 -232 -1 -175 1 -209 15 -222 8 -9 24
-16 34 -16 10 0 22 -4 25 -10 4 -6 -43 -10 -134 -10 -140 0 -170 7 -109 25 40
12 46 31 47 148 l1 87 -115 0 -116 0 3 -107 3 -108 32 -15 c18 -8 33 -18 33
-22 0 -5 -108 -8 -240 -8 -132 0 -240 4 -240 8 0 4 14 13 31 19 29 11 31 15
26 49 -3 19 -14 56 -23 80 l-17 44 -87 0 -87 0 -17 -58 c-23 -74 -19 -93 22
-111 17 -8 32 -18 32 -23 0 -4 -94 -8 -210 -7 -115 1 -210 4 -210 8 0 4 15 14
33 22 l32 14 3 92 c3 105 -3 121 -91 253 -61 92 -85 120 -114 131 -53 20 -20
29 107 29 78 0 130 -4 130 -10 0 -5 -11 -12 -25 -16 -37 -9 -31 -33 33 -129
l57 -87 28 34 c38 44 87 129 87 151 0 9 -11 23 -25 29 -46 21 -26 28 75 28 97
0 130 -12 70 -25 -35 -8 -87 -65 -159 -173 l-51 -76 0 -104 c0 -115 9 -142 46
-142 39 0 68 38 109 145 129 341 148 385 165 385 9 0 23 -12 30 -27z m-349
-719 c14 -29 23 -54 19 -54 -4 0 -16 19 -26 42 l-19 43 -5 -50 -6 -50 -4 63
c-3 38 -1 62 5 61 6 0 22 -25 36 -55z m84 -4 c0 -33 -3 -60 -7 -60 -7 0 -15
94 -10 110 9 27 17 4 17 -50z m254 9 l41 -52 0 52 c0 28 3 51 8 51 4 0 5 -28
4 -62 l-4 -62 -43 49 -43 50 -4 -50 -3 -50 -5 63 c-3 34 -2 62 2 62 3 0 25
-23 47 -51z m196 41 c3 -6 -1 -7 -9 -4 -18 7 -21 14 -7 14 6 0 13 -4 16 -10z
m138 -52 c14 -32 22 -58 18 -58 -5 0 -16 20 -25 45 -10 25 -22 45 -27 45 -4 0
-6 7 -2 15 7 19 5 22 36 -47z m89 15 c-5 -78 -8 -82 -13 -15 -2 38 0 62 6 62
6 0 9 -20 7 -47z m291 40 c-19 -4 -22 -11 -21 -54 0 -72 -10 -72 -14 0 l-3 61
30 -1 c23 -1 25 -3 8 -6z m119 -9 c-25 -17 -31 -71 -10 -92 9 -9 9 -12 0 -12
-11 0 -32 39 -32 59 0 14 41 61 53 61 6 0 1 -7 -11 -16z m73 5 c11 -16 1 -19
-13 -3 -7 8 -8 14 -3 14 5 0 13 -5 16 -11z m293 -44 c17 -30 26 -57 22 -60 -5
-3 -16 15 -26 40 -9 25 -20 45 -24 45 -4 0 -10 7 -14 15 -3 8 -1 15 4 15 4 0
22 -25 38 -55z m82 -7 l-4 -63 -6 50 c-6 51 -3 75 9 75 3 0 4 -28 1 -62z m133
0 c14 -32 22 -58 18 -58 -5 0 -16 20 -25 45 -10 25 -22 45 -27 45 -4 0 -6 7
-2 15 7 19 5 22 36 -47z m110 55 c-19 -4 -22 -12 -25 -61 l-3 -57 -5 63 -5 62
30 -1 c23 -1 25 -3 8 -6z m182 -3 c3 -6 -1 -7 -9 -4 -18 7 -21 14 -7 14 6 0
13 -4 16 -10z m65 -50 c0 -33 -3 -60 -7 -60 -5 0 -8 27 -8 60 0 33 3 60 8 60
4 0 7 -27 7 -60z m82 -1 c-2 -33 -6 -59 -8 -56 -9 9 -8 117 1 117 6 0 9 -24 7
-61z m220 1 c-2 -33 -7 -60 -12 -60 -4 0 -5 20 -2 45 3 28 0 50 -8 60 -10 12
-9 15 6 15 17 0 19 -7 16 -60z m69 50 c13 -7 19 -21 19 -45 0 -18 -3 -36 -7
-38 -5 -3 -8 11 -8 31 0 29 -5 39 -25 49 -14 7 -19 13 -12 13 7 0 22 -5 33
-10z m252 3 c-19 -4 -22 -12 -25 -61 l-3 -57 -5 63 -5 62 30 -1 c23 -1 25 -3
8 -6z m-2514 -65 c11 -27 17 -48 13 -48 -4 0 -15 19 -24 43 -9 23 -21 41 -26
40 -6 -2 -9 4 -5 13 8 20 17 9 42 -48z m229 32 c-8 -24 -7 -35 7 -56 12 -19
13 -25 3 -22 -22 7 -33 54 -20 83 16 35 23 32 10 -5z m501 -32 c11 -27 17 -48
13 -48 -4 0 -14 19 -23 43 -8 23 -20 41 -27 40 -6 -2 -9 4 -5 13 8 20 17 9 42
-48z m143 26 c-8 -14 -9 -13 -9 10 0 18 3 24 9 18 7 -7 7 -16 0 -28z m273 6
c24 -46 35 -80 27 -80 -4 0 -14 19 -23 43 -8 23 -20 41 -27 40 -6 -2 -9 4 -6
12 8 21 11 19 29 -15z m525 -15 c-10 -12 -9 -21 4 -42 17 -27 16 -27 -8 2 -21
25 -23 31 -11 38 8 4 16 18 16 30 1 18 2 18 6 4 3 -10 -1 -24 -7 -32z m428 -7
c28 -66 20 -77 -10 -12 -12 27 -24 52 -26 57 -2 4 0 7 5 7 5 0 19 -23 31 -52z
m332 3 c0 -25 -6 -43 -17 -52 -16 -13 -17 -12 -4 4 9 11 12 31 8 57 -3 23 -1
38 4 34 5 -3 9 -22 9 -43z m117 17 c-3 -7 -5 -2 -5 12 0 14 2 19 5 13 2 -7 2
-19 0 -25z m-215 -13 c-2 -19 1 -42 8 -50 9 -11 9 -15 1 -15 -19 0 -34 51 -22
77 15 32 18 29 13 -12z m-594 -5 c-1 -16 5 -36 12 -45 7 -8 10 -15 6 -15 -14
0 -37 51 -31 70 9 28 14 25 13 -10z m-875 -30 c10 -16 16 -30 14 -30 -2 0 -13
14 -25 30 -13 17 -19 30 -14 30 4 0 16 -13 25 -30z m1679 0 c22 -39 15 -39
-12 0 -12 17 -18 30 -13 30 4 0 16 -14 25 -30z m-2212 -5 c0 -14 -4 -25 -9
-25 -4 0 -6 11 -3 25 2 14 6 25 8 25 2 0 4 -11 4 -25z m697 -12 c-3 -10 -5 -4
-5 12 0 17 2 24 5 18 2 -7 2 -21 0 -30z m-740 -19 c-3 -3 -12 -4 -19 -1 -8 3
-5 6 6 6 11 1 17 -2 13 -5z m706 -1 c-7 -2 -19 -2 -25 0 -7 3 -2 5 12 5 14 0
19 -2 13 -5z m804 1 c-3 -3 -12 -4 -19 -1 -8 3 -5 6 6 6 11 1 17 -2 13 -5z
m590 0 c-3 -3 -12 -4 -19 -1 -8 3 -5 6 6 6 11 1 17 -2 13 -5z"/>
<path d="M2877 2518 c-11 -8 -20 -33 -24 -67 l-6 -53 25 23 c14 13 42 35 61
49 37 25 37 25 16 43 -25 20 -49 22 -72 5z"/>
<path d="M2850 2379 c0 -5 5 -7 10 -4 6 3 10 8 10 11 0 2 -4 4 -10 4 -5 0 -10
-5 -10 -11z"/>
<path d="M3050 2347 c0 -13 7 -46 15 -73 8 -26 12 -58 9 -71 -6 -23 5 -29 71
-35 20 -2 34 -11 42 -28 8 -15 13 -19 13 -9 0 19 -130 239 -142 239 -4 0 -8
-11 -8 -23z"/>
<path d="M2844 1983 c7 -89 22 -123 54 -123 10 0 12 7 9 23 -4 12 -9 59 -13
105 -7 79 -8 82 -32 82 l-25 0 7 -87z"/>
<path d="M2672 1663 c-16 -29 -15 -33 8 -33 22 0 23 4 11 35 -8 19 -8 19 -19
-2z"/>
<path d="M3212 1655 c-11 -23 -10 -25 14 -25 22 0 24 2 13 23 -6 12 -13 23
-14 25 -1 1 -7 -9 -13 -23z"/>
<path d="M2940 1686 c0 -22 5 -36 13 -36 42 1 51 62 10 68 -20 3 -23 -1 -23
-32z"/>
<path d="M1813 1288 l-30 -83 33 -3 c19 -2 49 -2 68 0 l34 3 -30 75 c-16 41
-33 79 -37 83 -5 4 -22 -29 -38 -75z"/>
</g>
</svg>
